<svg width="57" height="48" viewBox="0 0 324 274" fill="none" xmlns="http://www.w3.org/2000/svg">
  <mask id="path-1-outside-1_2_286" maskUnits="userSpaceOnUse" x="4.19962" y="0.0980225" width="320"
    height="273" fill="black">
    <rect fill="white" x="4.19962" y="0.0980225" width="320" height="273" />
    <path fill-rule="evenodd" clip-rule="evenodd"
      d="M254.136 180.15L269.223 212C272.379 218.368 273.295 225.615 271.824 232.568C270.265 239.383 266.441 245.469 260.979 249.832C255.516 254.195 248.735 256.578 241.744 256.592C235.912 256.575 230.203 254.913 225.274 251.797C220.344 248.681 216.395 244.237 213.878 238.976L200.591 211.01L200.586 211C200.568 211.006 200.55 211.012 200.532 211.018L190.457 189.88L200.499 211.001C185.917 215.997 170.617 218.575 155.203 218.634C140.994 218.557 126.882 216.293 113.362 211.924L113.333 211.914L113.329 211.924L113.278 211.908L100.713 238.347C98.4559 243.245 94.9807 247.483 90.6191 250.655C86.2575 253.827 81.1553 255.828 75.8001 256.466C69.1606 257.173 62.4714 255.701 56.7421 252.272C52.104 249.556 48.2801 245.646 45.6698 240.948C43.2334 236.642 41.8714 231.812 41.6991 226.868C41.5268 221.923 42.5494 217.01 44.68 212.545L59.2082 181.979C64.4764 186.43 70.0301 190.532 75.8337 194.259C87.041 201.445 99.0994 207.203 111.729 211.401C99.1176 207.204 87.0764 201.452 75.8839 194.276C70.0804 190.549 64.5267 186.447 59.2584 181.995L59.2683 181.975C43.2417 168.423 30.903 152.275 23.676 135.138C17.4184 120.476 23.374 101.988 37.5501 94.7576C41.3971 92.7629 45.6218 91.6029 49.948 91.3534C54.2742 91.1039 58.6044 91.7706 62.6552 93.3099C66.706 94.8491 70.3864 97.2262 73.4552 100.286C76.5241 103.345 78.9123 107.018 80.4639 111.064C82.2649 115.234 84.5836 119.16 87.3652 122.751L129.275 34.6905C131.781 29.4252 135.728 24.978 140.658 21.8643C145.589 18.7506 151.301 17.098 157.132 17.098C162.963 17.098 168.675 18.7506 173.606 21.8643C178.536 24.978 182.483 29.4252 184.989 34.6905L226.041 121.039L226.051 121.059C235.846 109.365 242.615 95.4415 245.762 80.515C247.148 73.5174 250.913 67.215 256.417 62.6772C261.921 58.1393 268.826 55.6454 275.959 55.6188C281.035 55.6234 286.032 56.8778 290.509 59.2711C294.986 61.6645 298.804 65.1233 301.627 69.342C303.897 72.7033 305.476 76.4829 306.271 80.4605C307.066 84.4381 307.061 88.5343 306.257 92.5101C299.414 126.876 280.163 157.62 254.136 180.15ZM140.193 155.267C140.197 155.268 140.201 155.269 140.205 155.27C145.115 156.35 150.125 156.912 155.152 156.948C161.411 156.932 167.645 156.172 173.724 154.683L173.727 154.691C173.734 154.689 173.74 154.688 173.746 154.686L160.328 126.591C160.037 125.976 159.578 125.456 159.003 125.092C158.428 124.728 157.762 124.535 157.082 124.535C156.401 124.535 155.735 124.728 155.16 125.092C154.585 125.456 154.126 125.976 153.835 126.591L140.193 155.267Z" />
  </mask>
  <path fill-rule="evenodd" clip-rule="evenodd"
    d="M254.136 180.15L269.223 212C272.379 218.368 273.295 225.615 271.824 232.568C270.265 239.383 266.441 245.469 260.979 249.832C255.516 254.195 248.735 256.578 241.744 256.592C235.912 256.575 230.203 254.913 225.274 251.797C220.344 248.681 216.395 244.237 213.878 238.976L200.591 211.01L200.586 211C200.568 211.006 200.55 211.012 200.532 211.018L190.457 189.88L200.499 211.001C185.917 215.997 170.617 218.575 155.203 218.634C140.994 218.557 126.882 216.293 113.362 211.924L113.333 211.914L113.329 211.924L113.278 211.908L100.713 238.347C98.4559 243.245 94.9807 247.483 90.6191 250.655C86.2575 253.827 81.1553 255.828 75.8001 256.466C69.1606 257.173 62.4714 255.701 56.7421 252.272C52.104 249.556 48.2801 245.646 45.6698 240.948C43.2334 236.642 41.8714 231.812 41.6991 226.868C41.5268 221.923 42.5494 217.01 44.68 212.545L59.2082 181.979C64.4764 186.43 70.0301 190.532 75.8337 194.259C87.041 201.445 99.0994 207.203 111.729 211.401C99.1176 207.204 87.0764 201.452 75.8839 194.276C70.0804 190.549 64.5267 186.447 59.2584 181.995L59.2683 181.975C43.2417 168.423 30.903 152.275 23.676 135.138C17.4184 120.476 23.374 101.988 37.5501 94.7576C41.3971 92.7629 45.6218 91.6029 49.948 91.3534C54.2742 91.1039 58.6044 91.7706 62.6552 93.3099C66.706 94.8491 70.3864 97.2262 73.4552 100.286C76.5241 103.345 78.9123 107.018 80.4639 111.064C82.2649 115.234 84.5836 119.16 87.3652 122.751L129.275 34.6905C131.781 29.4252 135.728 24.978 140.658 21.8643C145.589 18.7506 151.301 17.098 157.132 17.098C162.963 17.098 168.675 18.7506 173.606 21.8643C178.536 24.978 182.483 29.4252 184.989 34.6905L226.041 121.039L226.051 121.059C235.846 109.365 242.615 95.4415 245.762 80.515C247.148 73.5174 250.913 67.215 256.417 62.6772C261.921 58.1393 268.826 55.6454 275.959 55.6188C281.035 55.6234 286.032 56.8778 290.509 59.2711C294.986 61.6645 298.804 65.1233 301.627 69.342C303.897 72.7033 305.476 76.4829 306.271 80.4605C307.066 84.4381 307.061 88.5343 306.257 92.5101C299.414 126.876 280.163 157.62 254.136 180.15ZM140.193 155.267C140.197 155.268 140.201 155.269 140.205 155.27C145.115 156.35 150.125 156.912 155.152 156.948C161.411 156.932 167.645 156.172 173.724 154.683L173.727 154.691C173.734 154.689 173.74 154.688 173.746 154.686L160.328 126.591C160.037 125.976 159.578 125.456 159.003 125.092C158.428 124.728 157.762 124.535 157.082 124.535C156.401 124.535 155.735 124.728 155.16 125.092C154.585 125.456 154.126 125.976 153.835 126.591L140.193 155.267Z"
    fill="white" fill-opacity="0.91" />
  <path
    d="M269.223 212L254.384 219.029L254.446 219.161L254.51 219.291L269.223 212ZM254.136 180.15L243.39 167.734L233.955 175.901L239.297 187.179L254.136 180.15ZM271.824 232.568L287.831 236.23L287.861 236.099L287.888 235.968L271.824 232.568ZM260.979 249.832L271.226 262.663L271.226 262.663L260.979 249.832ZM241.744 256.592L241.697 273.012L241.737 273.012L241.776 273.012L241.744 256.592ZM225.274 251.797L216.5 265.677L225.274 251.797ZM213.878 238.976L199.047 246.023L199.056 246.042L199.065 246.062L213.878 238.976ZM200.591 211.01L215.423 203.964L215.417 203.951L215.41 203.938L200.591 211.01ZM200.586 211L215.405 203.928L209.112 190.74L195.283 195.459L200.586 211ZM200.532 211.018L185.709 218.083L191.995 231.27L205.824 226.563L200.532 211.018ZM190.457 189.88L205.28 182.815L175.628 196.93L190.457 189.88ZM200.499 211.001L205.821 226.535L223.23 220.571L215.329 203.951L200.499 211.001ZM155.203 218.634L155.113 235.054L155.189 235.055L155.266 235.055L155.203 218.634ZM113.362 211.924L118.412 196.299L118.399 196.295L118.385 196.291L113.362 211.924ZM113.333 211.914L118.356 196.281L104.675 191.885L98.5043 204.863L113.333 211.914ZM113.329 211.924L108.304 227.557L121.986 231.954L128.158 218.976L113.329 211.924ZM113.278 211.908L118.302 196.275L104.618 191.877L98.4475 204.86L113.278 211.908ZM100.713 238.347L85.8822 231.299L85.8405 231.387L85.7998 231.475L100.713 238.347ZM90.6191 250.655L80.9611 237.375L80.961 237.375L90.6191 250.655ZM75.8001 256.466L77.5385 272.794L77.6408 272.783L77.7429 272.771L75.8001 256.466ZM56.7421 252.272L65.1746 238.182L65.1064 238.141L65.0379 238.101L56.7421 252.272ZM45.6698 240.948L60.0233 232.972L59.9924 232.917L59.9611 232.861L45.6698 240.948ZM41.6991 226.868L58.1095 226.296L41.6991 226.868ZM44.68 212.545L59.4996 219.617L59.505 219.606L59.5105 219.594L44.68 212.545ZM59.2082 181.979L69.8061 169.436L53.5268 155.681L44.3778 174.93L59.2082 181.979ZM75.8337 194.259L66.9612 208.076L66.9709 208.082L75.8337 194.259ZM111.729 211.401L106.549 226.983L116.914 195.821L111.729 211.401ZM75.8839 194.276L67.0114 208.093L67.0211 208.099L75.8839 194.276ZM59.2584 181.995L44.4294 174.944L38.9953 186.371L48.6606 194.538L59.2584 181.995ZM59.2683 181.975L74.0974 189.026L79.5296 177.603L69.8704 169.436L59.2683 181.975ZM23.676 135.138L38.8059 128.758L38.7923 128.725L38.7785 128.693L23.676 135.138ZM37.5501 94.7576L45.0109 109.385L45.0598 109.36L45.1085 109.335L37.5501 94.7576ZM49.948 91.3534L50.8934 107.747L49.948 91.3534ZM62.6552 93.3099L56.8226 108.659H56.8226L62.6552 93.3099ZM73.4552 100.286L85.0484 88.6571L85.0484 88.657L73.4552 100.286ZM80.4639 111.064L65.1323 116.944L65.2543 117.262L65.3895 117.575L80.4639 111.064ZM87.3652 122.751L74.3847 132.807L90.7259 153.9L102.192 129.807L87.3652 122.751ZM129.275 34.6905L114.448 27.6334L114.448 27.6341L129.275 34.6905ZM140.658 21.8643L131.891 7.98072L140.658 21.8643ZM173.606 21.8643L182.373 7.98072L182.373 7.98071L173.606 21.8643ZM184.989 34.6905L199.819 27.6401L199.816 27.6334L184.989 34.6905ZM226.041 121.039L211.211 128.089L211.212 128.09L226.041 121.039ZM226.051 121.059L211.221 128.11L222.209 151.217L238.639 131.603L226.051 121.059ZM245.762 80.515L261.829 83.9023L261.85 83.8044L261.869 83.7062L245.762 80.515ZM256.417 62.6772L245.972 50.0075L245.972 50.0075L256.417 62.6772ZM275.959 55.6188L275.974 39.1984L275.936 39.1984L275.898 39.1985L275.959 55.6188ZM290.509 59.2711L298.251 44.7904L298.251 44.7904L290.509 59.2711ZM301.627 69.342L287.98 78.4743L288 78.5037L288.02 78.5329L301.627 69.342ZM306.257 92.5101L290.163 89.2551L290.158 89.2793L290.153 89.3034L306.257 92.5101ZM140.205 155.27L143.732 139.233L143.699 139.226L143.667 139.219L140.205 155.27ZM140.193 155.267L125.365 148.213L116.453 166.945L136.731 171.319L140.193 155.267ZM155.152 156.948L155.037 173.368L155.114 173.368L155.192 173.368L155.152 156.948ZM173.724 154.683L188.556 147.638L182.814 135.55L169.816 138.734L173.724 154.683ZM173.727 154.691L158.895 161.736L164.655 173.861L177.682 170.628L173.727 154.691ZM173.746 154.686L177.738 170.614L197.219 165.732L188.563 147.609L173.746 154.686ZM160.328 126.591L145.48 133.605L145.495 133.636L145.511 133.668L160.328 126.591ZM159.003 125.092L150.215 138.963L150.215 138.963L159.003 125.092ZM155.16 125.092L146.372 111.221L146.372 111.222L155.16 125.092ZM153.835 126.591L168.663 133.646L168.673 133.625L168.683 133.605L153.835 126.591ZM284.063 204.971L268.976 173.12L239.297 187.179L254.384 219.029L284.063 204.971ZM287.888 235.968C290.125 225.4 288.732 214.387 283.936 204.709L254.51 219.291C256.026 222.349 256.466 225.829 255.759 229.168L287.888 235.968ZM271.226 262.663C279.59 255.983 285.443 246.665 287.831 236.23L255.817 228.906C255.086 232.102 253.293 234.956 250.731 237.002L271.226 262.663ZM241.776 273.012C252.48 272.991 262.862 269.343 271.226 262.663L250.731 237.002C248.169 239.048 244.99 240.165 241.712 240.171L241.776 273.012ZM216.5 265.677C224.041 270.444 232.775 272.987 241.697 273.012L241.79 240.171C239.049 240.164 236.365 239.382 234.048 237.918L216.5 265.677ZM199.065 246.062C202.915 254.111 208.958 260.909 216.5 265.677L234.048 237.918C231.731 236.453 229.874 234.364 228.691 231.891L199.065 246.062ZM185.76 218.057L199.047 246.023L228.71 231.93L215.423 203.964L185.76 218.057ZM185.767 218.072L185.772 218.083L215.41 203.938L215.405 203.928L185.767 218.072ZM205.824 226.563C205.844 226.556 205.866 226.548 205.889 226.54L195.283 195.459C195.27 195.464 195.256 195.469 195.241 195.474L205.824 226.563ZM175.634 196.945L185.709 218.083L215.355 203.953L205.28 182.815L175.634 196.945ZM215.329 203.951L205.287 182.829L175.628 196.93L185.669 218.051L215.329 203.951ZM155.266 235.055C172.469 234.988 189.546 232.111 205.821 226.535L195.177 195.467C182.288 199.883 168.764 202.162 155.14 202.214L155.266 235.055ZM108.313 227.548C123.436 232.436 139.22 234.967 155.113 235.054L155.293 202.214C142.769 202.146 130.329 200.151 118.412 196.299L108.313 227.548ZM108.31 227.548L108.339 227.557L118.385 196.291L118.356 196.281L108.31 227.548ZM128.158 218.976L128.162 218.966L98.5043 204.863L98.4996 204.873L128.158 218.976ZM108.254 227.541L108.304 227.557L118.353 196.292L118.302 196.275L108.254 227.541ZM115.544 245.396L128.109 218.957L98.4475 204.86L85.8822 231.299L115.544 245.396ZM100.277 263.935C106.91 259.111 112.194 252.667 115.626 245.219L85.7998 231.475C84.7177 233.823 83.0517 235.855 80.9611 237.375L100.277 263.935ZM77.7429 272.771C85.8861 271.8 93.6446 268.758 100.277 263.935L80.961 237.375C78.8703 238.896 76.4245 239.855 73.8572 240.161L77.7429 272.771ZM48.3096 266.361C57.0965 271.62 67.3557 273.878 77.5385 272.794L74.0616 240.138C70.9656 240.467 67.8463 239.781 65.1746 238.182L48.3096 266.361ZM31.3162 248.923C35.3547 256.191 41.2707 262.242 48.4464 266.442L65.0379 238.101C62.9373 236.871 61.2055 235.1 60.0233 232.972L31.3162 248.923ZM25.2887 227.439C25.553 235.022 27.6419 242.43 31.3785 249.034L59.9611 232.861C58.825 230.854 58.1899 228.601 58.1095 226.296L25.2887 227.439ZM29.8605 205.473C26.5928 212.321 25.0244 219.856 25.2887 227.439L58.1095 226.296C58.0292 223.99 58.506 221.699 59.4996 219.617L29.8605 205.473ZM44.3778 174.93L29.8496 205.496L59.5105 219.594L74.0387 189.027L44.3778 174.93ZM84.7061 180.442C79.5048 177.102 74.5275 173.426 69.8061 169.436L48.6103 194.521C54.4253 199.435 60.5554 203.962 66.9612 208.076L84.7061 180.442ZM116.909 195.819C105.575 192.052 94.754 186.884 84.6964 180.436L66.9709 208.082C79.3281 216.005 92.6236 222.354 106.549 226.983L116.909 195.819ZM67.0211 208.099C79.3619 216.011 92.6385 222.354 106.543 226.981L116.914 195.821C105.597 192.055 94.791 186.892 84.7467 180.452L67.0211 208.099ZM48.6606 194.538C54.4756 199.451 60.6056 203.979 67.0114 208.093L84.7563 180.459C79.5551 177.119 74.5777 173.442 69.8563 169.453L48.6606 194.538ZM44.4392 174.923L44.4294 174.944L74.0875 189.047L74.0974 189.026L44.4392 174.923ZM8.546 141.519C16.9163 161.367 30.9605 179.543 48.6662 194.513L69.8704 169.436C55.5229 157.304 44.8897 143.184 38.8059 128.758L8.546 141.519ZM30.0892 80.1301C7.61661 91.5925 -0.799706 119.621 8.57345 141.584L38.7785 128.693C35.6365 121.331 39.1314 112.384 45.0109 109.385L30.0892 80.1301ZM49.0027 74.9603C42.3688 75.3428 35.8906 77.1217 29.9916 80.1803L45.1085 109.335C46.9036 108.404 48.8748 107.863 50.8934 107.747L49.0027 74.9603ZM68.4878 77.9603C62.2763 75.6 55.6365 74.5777 49.0027 74.9603L50.8934 107.747C52.912 107.63 54.9325 107.941 56.8226 108.659L68.4878 77.9603ZM85.0484 88.657C80.3425 83.9655 74.6992 80.3205 68.4878 77.9603L56.8226 108.659C58.7129 109.378 60.4302 110.487 61.862 111.914L85.0484 88.657ZM95.7956 105.185C93.4164 98.9807 89.7543 93.3486 85.0484 88.6571L61.862 111.914C63.2938 113.342 64.4082 115.056 65.1323 116.944L95.7956 105.185ZM100.346 112.694C98.4081 110.193 96.7929 107.458 95.5384 104.553L65.3895 117.575C67.7369 123.01 70.7591 128.128 74.3847 132.807L100.346 112.694ZM114.448 27.6341L72.5384 115.694L102.192 129.807L144.102 41.7469L114.448 27.6341ZM131.891 7.98072C124.336 12.7515 118.288 19.5657 114.448 27.6334L144.101 41.7475C145.274 39.2847 147.12 37.2044 149.426 35.7479L131.891 7.98072ZM157.132 0.677658C148.197 0.677658 139.445 3.20986 131.891 7.98072L149.426 35.7479C151.732 34.2914 154.404 33.5184 157.132 33.5184V0.677658ZM182.373 7.98071C174.819 3.2098 166.067 0.677658 157.132 0.677658V33.5184C159.86 33.5184 162.532 34.2915 164.838 35.7479L182.373 7.98071ZM199.816 27.6334C195.976 19.5657 189.928 12.7515 182.373 7.98072L164.838 35.7479C167.144 37.2044 168.99 39.2847 170.163 41.7475L199.816 27.6334ZM240.871 113.988L199.819 27.6401L170.16 41.7409L211.211 128.089L240.871 113.988ZM240.88 114.007L240.87 113.987L211.212 128.09L211.221 128.11L240.88 114.007ZM229.695 77.1277C227.103 89.4195 221.529 100.885 213.463 110.515L238.639 131.603C250.163 117.845 258.127 101.464 261.829 83.9023L229.695 77.1277ZM245.972 50.0075C237.543 56.9566 231.778 66.6079 229.655 77.3237L261.869 83.7062C262.519 80.427 264.283 77.4735 266.863 75.3469L245.972 50.0075ZM275.898 39.1985C264.974 39.2393 254.4 43.0584 245.972 50.0075L266.862 75.3469C269.442 73.2202 272.678 72.0515 276.021 72.0391L275.898 39.1985ZM298.251 44.7904C291.397 41.126 283.746 39.2055 275.974 39.1984L275.944 72.0392C278.325 72.0413 280.668 72.6295 282.767 73.7518L298.251 44.7904ZM315.274 60.2096C310.951 53.7507 305.105 48.455 298.251 44.7904L282.767 73.7518C284.866 74.8739 286.656 76.4958 287.98 78.4743L315.274 60.2096ZM322.373 77.2425C321.151 71.1276 318.724 65.3177 315.234 60.151L288.02 78.5329C289.071 80.0889 289.801 81.8381 290.169 83.6786L322.373 77.2425ZM322.352 95.7651C323.588 89.6537 323.595 83.3571 322.373 77.2425L290.169 83.6786C290.537 85.5192 290.535 87.4149 290.163 89.2551L322.352 95.7651ZM264.883 192.565C293.39 167.889 314.737 134.009 322.362 95.7168L290.153 89.3034C284.092 119.744 266.936 147.352 243.39 167.734L264.883 192.565ZM143.667 139.219C143.675 139.221 143.682 139.222 143.686 139.223C143.69 139.224 143.692 139.224 143.691 139.224C143.69 139.224 143.686 139.223 143.68 139.222C143.675 139.22 143.666 139.219 143.655 139.216L136.731 171.319C136.722 171.317 136.715 171.315 136.711 171.314C136.708 171.314 136.705 171.313 136.707 171.313C136.707 171.314 136.712 171.315 136.717 171.316C136.723 171.317 136.732 171.319 136.743 171.321L143.667 139.219ZM155.268 140.528C151.388 140.5 147.521 140.066 143.732 139.233L136.678 171.307C142.708 172.633 148.862 173.324 155.037 173.368L155.268 140.528ZM169.816 138.734C165.003 139.913 160.067 140.515 155.112 140.527L155.192 173.368C162.754 173.35 170.287 172.431 177.631 170.631L169.816 138.734ZM188.56 147.645L188.556 147.638L158.892 161.728L158.895 161.736L188.56 147.645ZM169.754 138.758C169.766 138.755 169.773 138.754 169.773 138.754L177.682 170.628C177.694 170.625 177.714 170.62 177.738 170.614L169.754 138.758ZM145.511 133.668L158.929 161.763L188.563 147.609L175.145 119.515L145.511 133.668ZM150.215 138.963C148.161 137.661 146.519 135.803 145.48 133.605L175.175 119.578C173.556 116.149 170.995 113.251 167.791 111.222L150.215 138.963ZM157.082 140.955C154.65 140.955 152.269 140.264 150.215 138.963L167.791 111.222C164.588 109.192 160.874 108.114 157.082 108.114V140.955ZM163.948 138.963C161.894 140.265 159.512 140.955 157.082 140.955V108.114C153.29 108.114 149.576 109.191 146.372 111.221L163.948 138.963ZM168.683 133.605C167.644 135.803 166.002 137.661 163.949 138.963L146.372 111.222C143.168 113.251 140.608 116.149 138.988 119.578L168.683 133.605ZM155.021 162.322L168.663 133.646L139.008 119.537L125.365 148.213L155.021 162.322Z"
    fill="white" mask="url(#path-1-outside-1_2_286)" />
  <g clip-path="url(#clip0_2_286)">
    <path
      d="M87.3757 122.859L73.6191 151.798L59.2584 181.995C64.5266 186.447 70.0803 190.549 75.8839 194.276C87.5489 201.755 100.136 207.687 113.329 211.924L127.203 182.767L140.221 155.354C119.653 150.875 99.1191 138.276 87.3757 122.859Z"
      fill="#210784" />
    <path
      d="M254.065 180.167L225.982 121.08C221.964 125.949 217.511 130.441 212.678 134.501C209.906 136.829 207.017 139.013 204.021 141.044C194.81 147.375 184.536 152.001 173.69 154.7L200.532 211.018C213.93 206.456 226.654 200.114 238.363 192.162C243.834 188.483 249.077 184.478 254.065 180.167Z"
      fill="#26069C" />
    <path
      d="M75.8341 194.258C70.0306 190.531 64.4769 186.429 59.2087 181.978L44.6805 212.544C42.5498 217.009 41.5272 221.922 41.6995 226.867C41.8719 231.811 43.2339 236.641 45.6702 240.947C48.2805 245.645 52.1044 249.556 56.7426 252.271C62.4719 255.7 69.1611 257.172 75.8005 256.465C81.1557 255.827 86.2579 253.826 90.6195 250.654C94.9811 247.482 98.4563 243.244 100.713 238.346L113.279 211.907C100.086 207.67 87.4991 201.737 75.8341 194.258Z"
      fill="#2404AA" />
    <path
      d="M301.627 69.3419C298.804 65.1232 294.986 61.6644 290.509 59.2711C286.032 56.8777 281.035 55.6234 275.959 55.6188C268.826 55.6454 261.921 58.1393 256.417 62.6772C250.913 67.215 247.148 73.5174 245.762 80.515C242.613 95.4505 235.838 109.382 226.033 121.08L254.116 180.167C280.153 157.636 299.413 126.885 306.257 92.5101C307.061 88.5343 307.066 84.4381 306.271 80.4605C305.476 76.4828 303.897 72.7033 301.627 69.3419Z"
      fill="#FF9999" />
    <g filter="url(#filter0_b_2_286)">
      <path
        d="M269.223 212L254.125 180.125L226.041 121.039L184.989 34.6905C182.483 29.4252 178.536 24.978 173.606 21.8643C168.675 18.7506 162.963 17.098 157.132 17.098C151.301 17.098 145.589 18.7506 140.658 21.8643C135.728 24.978 131.781 29.4252 129.275 34.6905L87.3338 122.817C99.0773 138.234 119.662 150.9 140.179 155.296L153.835 126.592C154.126 125.976 154.585 125.456 155.16 125.092C155.735 124.728 156.401 124.535 157.082 124.535C157.762 124.535 158.428 124.728 159.003 125.092C159.578 125.456 160.037 125.976 160.328 126.592L173.749 154.692L200.591 211.01L213.878 238.976C216.395 244.237 220.344 248.681 225.274 251.797C230.203 254.913 235.912 256.575 241.744 256.592C248.735 256.578 255.515 254.195 260.978 249.832C266.441 245.469 270.265 239.383 271.824 232.568C273.295 225.615 272.379 218.368 269.223 212Z"
        fill="#F25E6B" fill-opacity="0.95" />
    </g>
    <g filter="url(#filter1_b_2_286)">
      <path
        d="M173.723 154.683C167.645 156.172 161.41 156.932 155.152 156.948C150.124 156.912 145.114 156.35 140.204 155.27C119.687 150.824 99.1524 138.225 87.4089 122.808C84.6077 119.202 82.2739 115.256 80.4635 111.064C78.9118 107.018 76.5236 103.345 73.4547 100.286C70.3859 97.2262 66.7056 94.8491 62.6548 93.3099C58.6039 91.7706 54.2738 91.1039 49.9475 91.3534C45.6213 91.6029 41.3966 92.7629 37.5496 94.7576C23.3735 101.988 17.4179 120.476 23.6755 135.138C30.9061 152.284 43.2535 168.439 59.2917 181.995C64.5599 186.446 70.1136 190.548 75.9171 194.275C87.5821 201.754 100.169 207.687 113.362 211.924C126.882 216.293 140.994 218.557 155.202 218.634C170.616 218.575 185.917 215.997 200.498 211.001L173.723 154.683Z"
        fill="#0030EC" fill-opacity="0.9" />
    </g>
  </g>
  <defs>
    <filter id="filter0_b_2_286" x="78.6779" y="8.44216" width="202.486" height="256.805"
      filterUnits="userSpaceOnUse" color-interpolation-filters="sRGB">
      <feFlood flood-opacity="0" result="BackgroundImageFix" />
      <feGaussianBlur in="BackgroundImageFix" stdDeviation="4.32793" />
      <feComposite in2="SourceAlpha" operator="in" result="effect1_backgroundBlur_2_286" />
      <feBlend mode="normal" in="SourceGraphic" in2="effect1_backgroundBlur_2_286" result="shape" />
    </filter>
    <filter id="filter1_b_2_286" x="12.5433" y="82.6465" width="196.611" height="144.644"
      filterUnits="userSpaceOnUse" color-interpolation-filters="sRGB">
      <feFlood flood-opacity="0" result="BackgroundImageFix" />
      <feGaussianBlur in="BackgroundImageFix" stdDeviation="4.32793" />
      <feComposite in2="SourceAlpha" operator="in" result="effect1_backgroundBlur_2_286" />
      <feBlend mode="normal" in="SourceGraphic" in2="effect1_backgroundBlur_2_286" result="shape" />
    </filter>
    <clipPath id="clip0_2_286">
      <rect width="285.685" height="239.499" fill="white" transform="translate(21.1426 17.1336)" />
    </clipPath>
  </defs>
</svg>