<svg class="figma" width="48" height="48" viewBox="0 0 48 48" fill="none" xmlns="http://www.w3.org/2000/svg">
  <g clip-path="url(#clip0_0_5014)">
    <path
      d="M16.0001 48.0001C20.4162 48.0001 24.0002 44.4161 24.0002 40.0001V32H16.0001C11.5841 32 8 35.5841 8 40.0001C8 44.4161 11.5841 48.0001 16.0001 48.0001Z"
      fill="#0ACF83" />
    <path
      d="M8 24.0001C8 19.5841 11.5841 16 16.0001 16H24.0002V31.9999H16.0001C11.5841 32.0001 8 28.4161 8 24.0001Z"
      fill="#A259FF" />
    <path
      d="M8 8.00006C8 3.58406 11.5841 0 16.0001 0H24.0002V15.9999H16.0001C11.5841 15.9999 8 12.4161 8 8.00006Z"
      fill="#F24E1E" />
    <path
      d="M23.9998 0H31.9999C36.4159 0 40 3.58406 40 8.00006C40 12.4161 36.4159 15.9999 31.9999 15.9999H23.9998V0Z"
      fill="#FF7262" />
    <path
      d="M40 24.0001C40 28.4161 36.4159 32.0001 31.9999 32.0001C27.5838 32.0001 23.9998 28.4161 23.9998 24.0001C23.9998 19.5841 27.5838 16 31.9999 16C36.4159 16 40 19.5841 40 24.0001Z"
      fill="#1ABCFE" />
  </g>
  <defs>
    <clipPath id="clip0_0_5014">
      <rect width="48" height="48" fill="white" />
    </clipPath>
  </defs>
</svg>