<svg width="48" height="48" viewBox="0 0 48 48" fill="none" xmlns="http://www.w3.org/2000/svg">
<g clip-path="url(#clip0_0_5025)">
<path d="M24 48C37.2548 48 48 37.2548 48 24C48 10.7452 37.2548 0 24 0C10.7452 0 0 10.7452 0 24C0 37.2548 10.7452 48 24 48Z" fill="#FF4500"/>
<path d="M40 24.0001C40 22.0632 38.4281 20.4913 36.4912 20.4913C35.5369 20.4913 34.6947 20.8562 34.0772 21.4738C31.6912 19.7615 28.379 18.6387 24.7298 18.4983L26.3298 11.0036L31.5228 12.0983C31.579 13.4176 32.6737 14.4843 34.0211 14.4843C35.3965 14.4843 36.5193 13.3615 36.5193 11.986C36.5193 10.6106 35.3965 9.48779 34.0211 9.48779C33.0386 9.48779 32.1965 10.0492 31.8035 10.8913L25.993 9.65622C25.8246 9.62815 25.6562 9.65621 25.5158 9.74042C25.3755 9.82464 25.2912 9.96499 25.2351 10.1334L23.4667 18.4983C19.7333 18.6106 16.393 19.7053 13.979 21.4738C13.3614 20.8843 12.4912 20.4913 11.5649 20.4913C9.62808 20.4913 8.05615 22.0632 8.05615 24.0001C8.05615 25.4317 8.89826 26.6387 10.1333 27.2001C10.0772 27.5369 10.0491 27.9018 10.0491 28.2667C10.0491 33.6562 16.3088 38.0071 24.0562 38.0071C31.8035 38.0071 38.0632 33.6562 38.0632 28.2667C38.0632 27.9018 38.0351 27.565 37.979 27.2281C39.1298 26.6667 40 25.4317 40 24.0001ZM16 26.4983C16 25.1229 17.1228 24.0001 18.4983 24.0001C19.8737 24.0001 20.9965 25.1229 20.9965 26.4983C20.9965 27.8738 19.8737 28.9966 18.4983 28.9966C17.1228 28.9966 16 27.8738 16 26.4983ZM29.9509 33.0948C28.2386 34.8071 24.9825 34.9194 24.0281 34.9194C23.0737 34.9194 19.7895 34.779 18.1053 33.0948C17.8526 32.8422 17.8526 32.4211 18.1053 32.1685C18.3579 31.9159 18.779 31.9159 19.0316 32.1685C20.0983 33.2352 22.4 33.6281 24.0562 33.6281C25.7123 33.6281 27.986 33.2352 29.0807 32.1685C29.3333 31.9159 29.7544 31.9159 30.007 32.1685C30.2035 32.4492 30.2035 32.8422 29.9509 33.0948ZM29.5018 28.9966C28.1263 28.9966 27.0035 27.8738 27.0035 26.4983C27.0035 25.1229 28.1263 24.0001 29.5018 24.0001C30.8772 24.0001 32 25.1229 32 26.4983C32 27.8738 30.8772 28.9966 29.5018 28.9966Z" fill="white"/>
</g>
<defs>
<clipPath id="clip0_0_5025">
<rect width="48" height="48" fill="white"/>
</clipPath>
</defs>
</svg>
