<svg width="48" height="48" viewBox="0 0 48 48" fill="none" xmlns="http://www.w3.org/2000/svg">
<path d="M39.7503 22.4996C41.8212 22.4996 43.5 20.8208 43.5 18.7499C43.5 16.679 41.8211 15.0002 39.7502 15.0002C37.6791 15.0002 36 16.6792 36 18.7502V22.4996H39.7503ZM29.25 22.4996C31.3211 22.4996 33 20.8207 33 18.7496V8.25025C33 6.17918 31.3211 4.50024 29.25 4.50024C27.1789 4.50024 25.5 6.17918 25.5 8.25024V18.7496C25.5 20.8207 27.1789 22.4996 29.25 22.4996Z" fill="#2EB67D"/>
<path d="M8.24968 25.5004C6.17879 25.5004 4.5 27.1792 4.5 29.2501C4.5 31.321 6.17895 32.9998 8.24984 32.9998C10.3209 32.9998 12 31.3208 12 29.2498V25.5004H8.24968ZM18.75 25.5004C16.6789 25.5004 15 27.1793 15 29.2504V39.7498C15 41.8208 16.6789 43.4998 18.75 43.4998C20.8211 43.4998 22.5 41.8208 22.5 39.7498V29.2504C22.5 27.1793 20.8211 25.5004 18.75 25.5004Z" fill="#E01E5A"/>
<path d="M25.5002 39.7503C25.5002 41.8212 27.1789 43.5 29.2498 43.5C31.3207 43.5 32.9995 41.8211 32.9995 39.7502C32.9995 37.6791 31.3206 36 29.2495 36L25.5002 36L25.5002 39.7503ZM25.5002 29.25C25.5002 31.3211 27.1791 33 29.2502 33L39.7495 33C41.8206 33 43.4995 31.3211 43.4995 29.25C43.4995 27.1789 41.8206 25.5 39.7495 25.5L29.2502 25.5C27.1791 25.5 25.5002 27.1789 25.5002 29.25Z" fill="#ECB22E"/>
<path d="M22.4996 8.24968C22.4996 6.17879 20.8208 4.5 18.7499 4.5C16.679 4.5 15.0002 6.17895 15.0002 8.24984C15.0002 10.3209 16.6792 12 18.7502 12L22.4996 12L22.4996 8.24968ZM22.4996 18.75C22.4996 16.6789 20.8207 15 18.7496 15L8.25025 15C6.17918 15 4.50024 16.6789 4.50024 18.75C4.50024 20.8211 6.17918 22.5 8.25024 22.5L18.7496 22.5C20.8207 22.5 22.4996 20.8211 22.4996 18.75Z" fill="#36C5F0"/>
</svg>
